<svg xmlns="http://www.w3.org/2000/svg">

  <!-- Define symbols in defs block -->
  <defs>
    <!-- Store your path definition here with a unique ID -->
    <symbol id="icon-piece" viewBox="0 0 100 125">
      <path d="m49.95,97.5c-5.58,0-13.37-3.53-13.37-9.27,0-3.1,2.1-4.7,3.79-5.98,1.4-1.06,2.26-1.77,2.26-2.83,0-2.35-3.86-3.53-4.63-3.74H13.41V2.5h73.17l-.05,25.2c-.07.28-1.86,6.87-6.67,6.87-2.49,0-3.84-1.78-5.03-3.35-1.27-1.67-2.13-2.7-3.78-2.7-3.55,0-6.4,5.75-6.4,10.51s2.9,10.61,6.51,10.61c1.65,0,2.51-1.02,3.78-2.7,1.19-1.57,2.54-3.35,5.04-3.35,4.82,0,6.5,6.61,6.57,6.89l.04.33v24.85h-24.66c-.79.23-4.64,1.48-4.64,3.84,0,1.06.86,1.77,2.25,2.83,1.69,1.28,3.79,2.88,3.79,5.99,0,5.4-7.05,9.17-13.38,9.17Zm-33.77-24.59l22.29.03c.28.06,6.92,1.63,6.92,6.47,0,2.49-1.78,3.84-3.35,5.04-1.67,1.27-2.7,2.13-2.7,3.78,0,3.6,5.8,6.51,10.61,6.51s10.61-2.86,10.61-6.4c0-1.65-1.03-2.51-2.7-3.78-1.57-1.19-3.35-2.54-3.35-5.03,0-4.83,6.61-6.5,6.9-6.57l.33-.04h22.08v-21.9c-.23-.79-1.49-4.65-3.84-4.65-1.06,0-1.77.86-2.83,2.26-1.28,1.69-2.88,3.79-5.98,3.79-5.75,0-9.27-7.79-9.27-13.37,0-6.28,3.77-13.27,9.17-13.27,3.1,0,4.7,2.1,5.98,3.79,1.06,1.4,1.77,2.25,2.83,2.25,2.14,0,3.55-3.28,3.95-4.65V5.27H16.18v67.64Z"/>
    </symbol>

    <symbol id="icon-thinking" viewBox="5.0 -10.0 110.0 135.0">
      <path d="m78.066 56.789-3.6719-6.6094c-0.089843-0.16406-0.13281-0.36719-0.11719-0.55859l0.51172-5.832c0.52734-5.0273-0.35547-9.6953-2.6914-14.262-4.7617-9.3164-14.207-15.266-24.035-15.207-14.277 0.10938-25.898 11.805-26.457 26.621-0.26953 7.1133 1.1641 12.648 4.2617 16.449 2.7695 3.4023 4.293 8 4.293 12.941v15.352h29.105v-7.2266c1.1016 0.42188 2.25 0.63281 3.4336 0.63281 4.6484 0 8.6914-3.3047 9.6289-7.9766 0.027344-0.14062 0.058594-0.3125 0.91797-9.8672l2.6172-0.25781c0.95312-0.09375 1.7891-0.65625 2.2344-1.5078 0.44531-0.84766 0.43359-1.8555-0.035156-2.6914zm-2.0312 1.6094c-0.046875 0.089843-0.16016 0.24219-0.39453 0.26562l-2.6133 0.25781c-1.1172 0.10938-2.0039 1.0039-2.1016 2.125-0.20312 2.2734-0.82422 9.1992-0.89062 9.7227-0.70312 3.4688-3.7812 5.9844-7.3281 5.9844-1.2188 0-2.3945-0.29688-3.4922-0.88672-0.48828-0.26172-1.0625-0.25-1.5312 0.03125-0.46484 0.27734-0.74219 0.76953-0.74219 1.3203v6.1289h-24.438v-13.02c0-5.4766-1.7109-10.598-4.8164-14.414-1.875-2.3047-4.043-6.7539-3.7383-14.891 0.51172-13.57 11.117-24.277 24.145-24.375 8.9766-0.039063 17.574 5.4023 21.938 13.938 2.1562 4.2109 2.9336 8.3281 2.4453 12.977l-0.51562 5.8477c-0.058594 0.65625 0.085937 1.3281 0.40234 1.8984l3.6719 6.6094c0.11328 0.20703 0.054688 0.38672 0.007813 0.47656z"/>
      <path d="m47.867 33.066c-4.3398 0-7.875 3.5312-7.875 7.875 0 4.3398 3.5312 7.8711 7.875 7.8711 4.3398 0 7.875-3.5312 7.875-7.8711s-3.5312-7.875-7.875-7.875zm0 13.414c-3.0547 0-5.5391-2.4844-5.5391-5.5391 0-3.0547 2.4844-5.5391 5.5391-5.5391 3.0547 0 5.5391 2.4844 5.5391 5.5391 0 3.0547-2.4844 5.5391-5.5391 5.5391z"/>
      <path d="m63.539 36.656h-1.0977c-0.30469-1.0391-0.71875-2.0391-1.2422-2.9922l0.78125-0.78125c1.082-1.0859 1.082-2.8477 0-3.9336l-2.125-2.125c-1.0859-1.0859-2.8477-1.082-3.9336 0l-0.77734 0.77734c-0.95312-0.52344-1.957-0.9375-2.9922-1.2422v-1.0977c0-1.5352-1.2461-2.7812-2.7812-2.7812h-3.0039c-1.5352 0-2.7812 1.2461-2.7812 2.7812v1.0977c-1.0391 0.30469-2.0391 0.71875-2.9922 1.2422l-0.77734-0.77734c-1.082-1.082-2.8477-1.0859-3.9336 0l-2.125 2.125c-1.082 1.082-1.0859 2.8477 0 3.9336l0.77734 0.77734c-0.52344 0.95312-0.9375 1.957-1.2422 2.9922h-1.0977c-1.5352 0-2.7812 1.2461-2.7812 2.7812v3.0039c0 1.5312 1.2461 2.7812 2.7812 2.7812h1.0977c0.30469 1.0391 0.71875 2.0391 1.2422 2.9961l-0.77734 0.77734c-1.082 1.082-1.0859 2.8477 0 3.9336l2.125 2.125c1.082 1.082 2.8477 1.082 3.9336 0l0.77734-0.78125c0.95312 0.52344 1.957 0.94141 2.9922 1.2422v1.0977c0 1.5312 1.2461 2.7812 2.7812 2.7812h3.0039c1.5352 0 2.7812-1.2461 2.7812-2.7812v-1.0977c1.0391-0.30469 2.0391-0.72266 2.9922-1.2422l0.78125 0.78125c1.082 1.082 2.8477 1.082 3.9336 0l2.125-2.125c1.082-1.0859 1.082-2.8477 0-3.9336l-0.77734-0.77734c0.52344-0.95312 0.9375-1.957 1.2422-2.9961h1.0977c1.5352 0 2.7812-1.2461 2.7812-2.7812v-3.0039c0-1.5352-1.2461-2.7812-2.7812-2.7812zm0.44922 5.7852c0 0.24609-0.20312 0.44922-0.44922 0.44922h-2.9336l-0.20703 0.90625c-0.32031 1.4102-0.875 2.75-1.6523 3.9844l-0.49609 0.78906 2.0742 2.0742c0.17578 0.17578 0.17578 0.46094 0 0.63281l-2.1211 2.1211c-0.17578 0.17578-0.46094 0.17578-0.63672 0l-2.0742-2.0781-0.78906 0.49609c-1.2344 0.77734-2.5742 1.3359-3.9844 1.6523l-0.90625 0.20703v2.9336c0 0.24609-0.20312 0.44922-0.44922 0.44922h-3.0039c-0.24609 0-0.44922-0.19922-0.44922-0.44922v-2.9336l-0.90625-0.20703c-1.4102-0.32031-2.75-0.875-3.9844-1.6523l-0.78906-0.49609-2.0742 2.0781c-0.17578 0.17578-0.46094 0.17578-0.63672 0l-2.1211-2.1211c-0.17578-0.17578-0.17578-0.46094 0-0.63672l2.0742-2.0742-0.49609-0.78906c-0.77734-1.2344-1.3359-2.5742-1.6523-3.9844l-0.20703-0.90625h-2.9336c-0.24609 0-0.44922-0.19922-0.44922-0.44922v-3.0039c0-0.24609 0.20312-0.44922 0.44922-0.44922h2.9336l0.20703-0.90625c0.32031-1.4102 0.875-2.75 1.6523-3.9844l0.49609-0.78906-2.0742-2.0742c-0.17578-0.17578-0.17578-0.46094 0-0.63672l2.125-2.125c0.17578-0.17578 0.46094-0.17578 0.63281 0l2.0742 2.0742 0.78906-0.49609c1.2344-0.77734 2.5742-1.3359 3.9844-1.6523l0.90625-0.20703v-2.9336c0-0.24609 0.20312-0.44922 0.44922-0.44922h3.0039c0.24609 0 0.44922 0.20312 0.44922 0.44922v2.9336l0.90625 0.20703c1.4062 0.32031 2.75 0.875 3.9844 1.6523l0.78906 0.49609 2.0742-2.0742c0.17578-0.17188 0.46094-0.17578 0.63281 0l2.125 2.125c0.17578 0.17578 0.17578 0.46094 0 0.63281l-2.0742 2.0742 0.49609 0.78906c0.77734 1.2344 1.332 2.5742 1.6523 3.9844l0.20703 0.90625h2.9336c0.24609 0 0.44922 0.20312 0.44922 0.44922z"/>
    </symbol>
  </defs>
</svg>
