<svg xmlns="http://www.w3.org/2000/svg" data-name="Layer 1" viewBox="0 0 100 125" x="0px" y="0px"><path d="m49.95,97.5c-5.58,0-13.37-3.53-13.37-9.27,0-3.1,2.1-4.7,3.79-5.98,1.4-1.06,2.26-1.77,2.26-2.83,0-2.35-3.86-3.53-4.63-3.74H13.41V2.5h73.17l-.05,25.2c-.07.28-1.86,6.87-6.67,6.87-2.49,0-3.84-1.78-5.03-3.35-1.27-1.67-2.13-2.7-3.78-2.7-3.55,0-6.4,5.75-6.4,10.51s2.9,10.61,6.51,10.61c1.65,0,2.51-1.02,3.78-2.7,1.19-1.57,2.54-3.35,5.04-3.35,4.82,0,6.5,6.61,6.57,6.89l.04.33v24.85h-24.66c-.79.23-4.64,1.48-4.64,3.84,0,1.06.86,1.77,2.25,2.83,1.69,1.28,3.79,2.88,3.79,5.99,0,5.4-7.05,9.17-13.38,9.17Zm-33.77-24.59l22.29.03c.28.06,6.92,1.63,6.92,6.47,0,2.49-1.78,3.84-3.35,5.04-1.67,1.27-2.7,2.13-2.7,3.78,0,3.6,5.8,6.51,10.61,6.51s10.61-2.86,10.61-6.4c0-1.65-1.03-2.51-2.7-3.78-1.57-1.19-3.35-2.54-3.35-5.03,0-4.83,6.61-6.5,6.9-6.57l.33-.04h22.08v-21.9c-.23-.79-1.49-4.65-3.84-4.65-1.06,0-1.77.86-2.83,2.26-1.28,1.69-2.88,3.79-5.98,3.79-5.75,0-9.27-7.79-9.27-13.37,0-6.28,3.77-13.27,9.17-13.27,3.1,0,4.7,2.1,5.98,3.79,1.06,1.4,1.77,2.25,2.83,2.25,2.14,0,3.55-3.28,3.95-4.65V5.27H16.18v67.64Z"/><text x="0" y="115" fill="#000000" font-size="5px" font-weight="bold" font-family="'Helvetica Neue', Helvetica, Arial-Unicode, Arial, Sans-serif">Created by Untashable</text><text x="0" y="120" fill="#000000" font-size="5px" font-weight="bold" font-family="'Helvetica Neue', Helvetica, Arial-Unicode, Arial, Sans-serif">from the Noun Project</text></svg>