<svg xmlns="http://www.w3.org/2000/svg" version="1.1" viewBox="-5.0 -10.0 110.0 135.0">
 <path d="m78.066 56.789-3.6719-6.6094c-0.089843-0.16406-0.13281-0.36719-0.11719-0.55859l0.51172-5.832c0.52734-5.0273-0.35547-9.6953-2.6914-14.262-4.7617-9.3164-14.207-15.266-24.035-15.207-14.277 0.10938-25.898 11.805-26.457 26.621-0.26953 7.1133 1.1641 12.648 4.2617 16.449 2.7695 3.4023 4.293 8 4.293 12.941v15.352h29.105v-7.2266c1.1016 0.42188 2.25 0.63281 3.4336 0.63281 4.6484 0 8.6914-3.3047 9.6289-7.9766 0.027344-0.14062 0.058594-0.3125 0.91797-9.8672l2.6172-0.25781c0.95312-0.09375 1.7891-0.65625 2.2344-1.5078 0.44531-0.84766 0.43359-1.8555-0.035156-2.6914zm-2.0312 1.6094c-0.046875 0.089843-0.16016 0.24219-0.39453 0.26562l-2.6133 0.25781c-1.1172 0.10938-2.0039 1.0039-2.1016 2.125-0.20312 2.2734-0.82422 9.1992-0.89062 9.7227-0.70312 3.4688-3.7812 5.9844-7.3281 5.9844-1.2188 0-2.3945-0.29688-3.4922-0.88672-0.48828-0.26172-1.0625-0.25-1.5312 0.03125-0.46484 0.27734-0.74219 0.76953-0.74219 1.3203v6.1289h-24.438v-13.02c0-5.4766-1.7109-10.598-4.8164-14.414-1.875-2.3047-4.043-6.7539-3.7383-14.891 0.51172-13.57 11.117-24.277 24.145-24.375 8.9766-0.039063 17.574 5.4023 21.938 13.938 2.1562 4.2109 2.9336 8.3281 2.4453 12.977l-0.51562 5.8477c-0.058594 0.65625 0.085937 1.3281 0.40234 1.8984l3.6719 6.6094c0.11328 0.20703 0.054688 0.38672 0.007813 0.47656z"/>
 <path d="m47.867 33.066c-4.3398 0-7.875 3.5312-7.875 7.875 0 4.3398 3.5312 7.8711 7.875 7.8711 4.3398 0 7.875-3.5312 7.875-7.8711s-3.5312-7.875-7.875-7.875zm0 13.414c-3.0547 0-5.5391-2.4844-5.5391-5.5391 0-3.0547 2.4844-5.5391 5.5391-5.5391 3.0547 0 5.5391 2.4844 5.5391 5.5391 0 3.0547-2.4844 5.5391-5.5391 5.5391z"/>
 <path d="m63.539 36.656h-1.0977c-0.30469-1.0391-0.71875-2.0391-1.2422-2.9922l0.78125-0.78125c1.082-1.0859 1.082-2.8477 0-3.9336l-2.125-2.125c-1.0859-1.0859-2.8477-1.082-3.9336 0l-0.77734 0.77734c-0.95312-0.52344-1.957-0.9375-2.9922-1.2422v-1.0977c0-1.5352-1.2461-2.7812-2.7812-2.7812h-3.0039c-1.5352 0-2.7812 1.2461-2.7812 2.7812v1.0977c-1.0391 0.30469-2.0391 0.71875-2.9922 1.2422l-0.77734-0.77734c-1.082-1.082-2.8477-1.0859-3.9336 0l-2.125 2.125c-1.082 1.082-1.0859 2.8477 0 3.9336l0.77734 0.77734c-0.52344 0.95312-0.9375 1.957-1.2422 2.9922h-1.0977c-1.5352 0-2.7812 1.2461-2.7812 2.7812v3.0039c0 1.5312 1.2461 2.7812 2.7812 2.7812h1.0977c0.30469 1.0391 0.71875 2.0391 1.2422 2.9961l-0.77734 0.77734c-1.082 1.082-1.0859 2.8477 0 3.9336l2.125 2.125c1.082 1.082 2.8477 1.082 3.9336 0l0.77734-0.78125c0.95312 0.52344 1.957 0.94141 2.9922 1.2422v1.0977c0 1.5312 1.2461 2.7812 2.7812 2.7812h3.0039c1.5352 0 2.7812-1.2461 2.7812-2.7812v-1.0977c1.0391-0.30469 2.0391-0.72266 2.9922-1.2422l0.78125 0.78125c1.082 1.082 2.8477 1.082 3.9336 0l2.125-2.125c1.082-1.0859 1.082-2.8477 0-3.9336l-0.77734-0.77734c0.52344-0.95312 0.9375-1.957 1.2422-2.9961h1.0977c1.5352 0 2.7812-1.2461 2.7812-2.7812v-3.0039c0-1.5352-1.2461-2.7812-2.7812-2.7812zm0.44922 5.7852c0 0.24609-0.20312 0.44922-0.44922 0.44922h-2.9336l-0.20703 0.90625c-0.32031 1.4102-0.875 2.75-1.6523 3.9844l-0.49609 0.78906 2.0742 2.0742c0.17578 0.17578 0.17578 0.46094 0 0.63281l-2.1211 2.1211c-0.17578 0.17578-0.46094 0.17578-0.63672 0l-2.0742-2.0781-0.78906 0.49609c-1.2344 0.77734-2.5742 1.3359-3.9844 1.6523l-0.90625 0.20703v2.9336c0 0.24609-0.20312 0.44922-0.44922 0.44922h-3.0039c-0.24609 0-0.44922-0.19922-0.44922-0.44922v-2.9336l-0.90625-0.20703c-1.4102-0.32031-2.75-0.875-3.9844-1.6523l-0.78906-0.49609-2.0742 2.0781c-0.17578 0.17578-0.46094 0.17578-0.63672 0l-2.1211-2.1211c-0.17578-0.17578-0.17578-0.46094 0-0.63672l2.0742-2.0742-0.49609-0.78906c-0.77734-1.2344-1.3359-2.5742-1.6523-3.9844l-0.20703-0.90625h-2.9336c-0.24609 0-0.44922-0.19922-0.44922-0.44922v-3.0039c0-0.24609 0.20312-0.44922 0.44922-0.44922h2.9336l0.20703-0.90625c0.32031-1.4102 0.875-2.75 1.6523-3.9844l0.49609-0.78906-2.0742-2.0742c-0.17578-0.17578-0.17578-0.46094 0-0.63672l2.125-2.125c0.17578-0.17578 0.46094-0.17578 0.63281 0l2.0742 2.0742 0.78906-0.49609c1.2344-0.77734 2.5742-1.3359 3.9844-1.6523l0.90625-0.20703v-2.9336c0-0.24609 0.20312-0.44922 0.44922-0.44922h3.0039c0.24609 0 0.44922 0.20312 0.44922 0.44922v2.9336l0.90625 0.20703c1.4062 0.32031 2.75 0.875 3.9844 1.6523l0.78906 0.49609 2.0742-2.0742c0.17578-0.17188 0.46094-0.17578 0.63281 0l2.125 2.125c0.17578 0.17578 0.17578 0.46094 0 0.63281l-2.0742 2.0742 0.49609 0.78906c0.77734 1.2344 1.332 2.5742 1.6523 3.9844l0.20703 0.90625h2.9336c0.24609 0 0.44922 0.20312 0.44922 0.44922z"/>
<text x="0.0" y="117.5" font-size="5.0" font-weight="bold" font-family="Arbeit Regular, Helvetica, Arial-Unicode, Arial, Sans-serif" fill="#000000">Created by Inspire Creators</text><text x="0.0" y="122.5" font-size="5.0" font-weight="bold" font-family="Arbeit Regular, Helvetica, Arial-Unicode, Arial, Sans-serif" fill="#000000">from Noun Project</text></svg>